<?xml version="1.0" standalone="no"?>
<!DOCTYPE svg PUBLIC "-//W3C//DTD SVG 20010904//EN"
 "http://www.w3.org/TR/2001/REC-SVG-20010904/DTD/svg10.dtd">
<svg version="1.0" xmlns="http://www.w3.org/2000/svg"
 width="708.000000pt" height="444.000000pt" viewBox="0 0 708.000000 444.000000"
 preserveAspectRatio="xMidYMid meet">
 

<g transform="translate(0.000000,444.000000) scale(0.100000,-0.100000)"
fill="#000000" stroke="none">
<path d="M6215 4358 c-166 -85 -484 -203 -705 -261 -401 -105 -834 -168 -1354
-197 -351 -19 -1155 -12 -1661 15 -55 3 -239 13 -410 22 -446 24 -1260 25
-1402 1 -332 -56 -492 -144 -552 -303 -47 -124 -11 -307 101 -515 50 -92 70
-112 90 -92 10 10 9 19 -6 45 -48 82 -98 188 -123 261 -38 109 -40 249 -6 311
82 147 265 221 628 255 201 18 691 11 1365 -20 1300 -61 1689 -61 2380 1 615
55 1230 211 1651 419 57 28 105 53 107 54 1 2 0 11 -4 20 -9 23 -30 19 -99
-16z"/>
<path d="M1815 3525 c-14 -31 -25 -58 -25 -60 0 -3 -27 -74 -59 -158 -133
-341 -181 -469 -181 -482 0 -13 33 -15 214 -15 l214 0 6 63 c3 34 15 195 26
357 12 162 22 306 23 320 2 25 2 25 -96 28 l-98 3 -24 -56z m30 -436 c-8 -68
-18 -130 -20 -136 -4 -13 -65 -19 -65 -6 0 3 15 54 34 112 67 205 74 209 51
30z"/>
<path d="M2285 3568 c-6 -19 -35 -135 -35 -142 0 -3 50 -6 110 -6 l111 0 -3
78 -3 77 -88 3 c-64 2 -88 -1 -92 -10z"/>
<path d="M2640 3500 l-41 -81 113 3 112 3 17 69 c10 39 16 74 13 78 -3 4 -43
8 -89 8 l-85 0 -40 -80z"/>
<path d="M3251 3562 c-12 -23 -51 -125 -51 -134 0 -5 54 -8 119 -8 66 0 122 3
124 8 3 4 7 39 8 77 l4 70 -97 3 c-86 2 -98 1 -107 -16z"/>
<path d="M3705 3568 c-12 -35 -32 -138 -27 -143 3 -3 52 -5 109 -5 l104 0 -7
68 c-3 37 -7 73 -10 80 -2 8 -28 12 -84 12 -56 0 -82 -4 -85 -12z"/>
<path d="M3986 3511 c-9 -39 -16 -75 -16 -81 0 -7 29 -10 87 -8 l87 3 17 69
c10 39 16 74 13 78 -3 4 -43 8 -89 8 l-83 0 -16 -69z"/>
<path d="M4497 3484 c-2 -3 20 -67 50 -142 30 -75 63 -159 72 -187 14 -40 22
-50 40 -50 20 0 31 23 95 188 41 103 70 189 66 192 -4 3 -12 -1 -18 -8 -9 -11
-111 -266 -126 -314 -4 -13 -11 -23 -14 -23 -4 0 -37 76 -72 170 -58 153 -78
189 -93 174z"/>
<path d="M5196 3483 c-3 -3 -6 -34 -6 -69 l0 -62 -40 15 c-52 21 -97 8 -126
-34 -43 -65 -38 -170 11 -219 28 -28 84 -32 128 -10 15 8 27 11 27 5 0 -5 7
-9 15 -9 13 0 15 28 15 189 0 172 -5 213 -24 194z m-25 -153 c16 -9 19 -22 19
-95 0 -75 -2 -85 -22 -99 -33 -24 -93 -20 -117 6 -39 41 -39 140 0 179 21 21
87 26 120 9z"/>
<path d="M4900 3454 c0 -14 4 -23 10 -19 6 3 10 15 10 26 0 10 -4 19 -10 19
-5 0 -10 -12 -10 -26z"/>
<path d="M2240 3367 c-5 -12 -25 -92 -44 -177 -20 -85 -56 -244 -81 -353 -25
-109 -45 -200 -45 -203 0 -2 41 -4 90 -4 50 0 90 1 90 3 0 13 82 372 86 376 2
3 1 -59 -2 -138 l-7 -142 53 3 54 3 43 105 c24 58 48 116 53 129 18 41 22 15
6 -40 -16 -56 -66 -275 -66 -291 0 -5 39 -7 87 -6 l87 3 43 185 c80 349 123
543 123 555 0 9 -30 12 -111 10 -128 -2 -119 4 -171 -111 -18 -41 -36 -74 -40
-74 -5 0 -8 38 -8 84 0 55 -4 87 -12 93 -7 5 -59 10 -116 11 -97 1 -103 0
-112 -21z"/>
<path d="M3768 3382 l-106 -3 -11 -47 c-16 -71 -88 -380 -121 -527 -17 -71
-33 -140 -36 -153 -5 -23 -4 -23 88 -20 l92 3 23 105 c48 226 54 255 58 258 2
2 6 -11 9 -29 6 -35 26 -287 26 -321 0 -17 7 -19 88 -16 l87 3 63 275 c85 373
104 461 100 465 -10 10 -160 10 -168 0 -5 -6 -14 -36 -20 -66 -6 -30 -14 -65
-17 -79 l-6 -25 -7 25 c-5 14 -8 50 -9 81 -1 33 -6 60 -13 65 -7 5 -61 8 -120
6z"/>
<path d="M3165 3344 c-8 -20 -15 -38 -15 -40 0 -2 -56 -150 -125 -328 -69
-179 -125 -330 -125 -335 0 -7 31 -11 84 -11 l83 0 25 68 25 67 57 3 c52 3 57
1 53 -15 -3 -10 -9 -42 -12 -70 l-7 -53 91 0 c80 0 91 2 91 18 0 9 5 69 10
132 12 139 40 546 40 578 0 22 -2 22 -130 22 l-130 0 -15 -36z m100 -260 c-9
-70 -18 -131 -21 -136 -5 -8 -64 -12 -64 -4 0 2 15 53 34 113 66 208 75 213
51 27z"/>
<path d="M5362 3360 c-60 -37 -80 -135 -43 -208 22 -44 55 -62 112 -62 44 0
99 31 99 56 0 20 -14 18 -35 -6 -13 -15 -31 -20 -66 -20 -40 0 -51 4 -73 31
-14 17 -26 41 -26 55 0 24 1 24 105 24 117 0 121 3 91 73 -29 70 -103 96 -164
57z m127 -46 c38 -48 30 -54 -69 -54 -99 0 -107 6 -69 54 17 22 28 26 69 26
41 0 52 -4 69 -26z"/>
<path d="M5665 3366 c-46 -20 -69 -62 -70 -126 0 -102 39 -150 124 -150 31 0
49 7 73 29 29 26 32 35 36 97 5 81 -13 125 -63 148 -40 19 -60 19 -100 2z
m113 -46 c43 -41 37 -151 -11 -185 -22 -15 -73 -20 -102 -9 -25 10 -45 59 -45
114 0 41 5 56 25 75 31 32 101 35 133 5z"/>
<path d="M4900 3235 c0 -83 4 -135 10 -135 6 0 10 52 10 135 0 83 -4 135 -10
135 -6 0 -10 -52 -10 -135z"/>
<path d="M4547 2943 c-16 -4 -17 -20 -15 -196 l3 -192 135 0 c113 0 135 2 135
15 0 12 -22 15 -123 18 l-123 3 3 77 3 77 108 3 c59 1 107 7 107 12 0 5 -48
11 -107 12 l-108 3 -3 67 -3 67 118 3 c97 2 118 6 118 18 0 12 -20 15 -115 16
-63 1 -123 -1 -133 -3z"/>
<path d="M5076 2943 c-3 -3 -6 -35 -6 -71 0 -57 -2 -63 -17 -56 -10 4 -39 9
-64 12 -42 3 -48 1 -77 -33 -29 -33 -32 -42 -32 -104 0 -54 5 -75 23 -102 32
-48 82 -60 130 -31 29 17 36 18 41 6 3 -8 10 -14 16 -14 6 0 10 68 10 194 0
177 -5 218 -24 199z m-23 -157 c14 -11 17 -29 17 -94 0 -77 -1 -83 -26 -99
-31 -20 -86 -22 -108 -4 -41 34 -44 148 -5 190 23 24 93 29 122 7z"/>
<path d="M5190 2915 c0 -14 4 -25 9 -25 12 0 23 29 15 41 -10 18 -24 9 -24
-16z"/>
<path d="M5462 2918 c2 -13 8 -23 13 -23 6 0 11 10 13 23 2 15 -2 22 -13 22
-11 0 -15 -7 -13 -22z"/>
<path d="M5327 2893 c-4 -3 -7 -19 -7 -35 0 -16 -6 -31 -15 -34 -8 -4 -15 -12
-15 -20 0 -8 7 -14 15 -14 12 0 15 -14 15 -62 0 -119 10 -169 37 -181 18 -8
27 -7 36 3 9 10 9 13 -1 17 -35 13 -42 34 -42 128 0 88 1 94 22 97 30 4 34 26
6 30 -19 2 -24 10 -26 41 -3 35 -11 45 -25 30z"/>
<path d="M4432 2856 c-5 -6 -13 -32 -16 -58 -9 -59 -67 -151 -129 -201 -68
-55 -179 -104 -311 -137 -120 -29 -339 -54 -429 -48 -47 3 -52 1 -55 -19 -5
-33 27 -37 201 -24 278 20 427 60 579 157 106 68 181 180 202 300 4 26 1 33
-14 37 -11 3 -23 0 -28 -7z"/>
<path d="M5643 2815 c-14 -10 -24 -12 -28 -5 -19 30 -25 -2 -25 -125 0 -83 4
-135 10 -135 6 0 10 41 10 104 0 101 1 105 26 125 17 13 41 21 65 21 58 0 69
-23 69 -147 0 -62 4 -103 10 -103 11 0 12 4 12 75 1 138 -2 165 -22 185 -24
24 -95 27 -127 5z"/>
<path d="M5917 2820 c-62 -38 -70 -191 -13 -248 31 -32 94 -36 123 -9 26 23
33 22 33 -6 0 -62 -104 -93 -151 -46 -23 23 -34 20 -25 -9 8 -25 47 -42 97
-42 92 0 109 33 109 219 l0 140 -27 1 c-16 0 -50 2 -78 5 -28 3 -58 1 -68 -5z
m118 -32 c25 -11 26 -14 23 -92 -3 -79 -3 -81 -38 -104 -60 -40 -118 -8 -127
71 -7 57 2 92 27 117 23 23 75 26 115 8z"/>
<path d="M5190 2686 c0 -84 4 -136 10 -136 6 0 10 6 10 13 6 160 3 251 -7 254
-10 4 -13 -27 -13 -131z"/>
<path d="M5462 2691 c4 -173 23 -177 23 -4 0 94 -3 127 -13 131 -10 3 -12 -24
-10 -127z"/>
<path d="M1510 2728 c-10 -24 -22 -55 -25 -70 l-7 -28 85 0 85 0 21 65 c12 35
21 67 21 70 0 3 -36 5 -81 5 l-80 0 -19 -42z"/>
<path d="M1807 2763 c-3 -5 -8 -36 -12 -70 l-7 -63 90 0 90 0 4 66 c1 36 1 68
-1 70 -8 7 -160 4 -164 -3z"/>
<path d="M3190 2540 c-26 -26 -26 -77 0 -110 24 -30 25 -46 5 -54 -23 -9 -55
-68 -55 -103 0 -37 37 -85 79 -102 38 -16 104 1 139 36 l26 26 26 -32 c15 -17
30 -31 33 -31 15 0 6 25 -19 51 -23 24 -25 30 -15 65 13 47 14 94 2 94 -5 0
-11 -18 -15 -39 -3 -22 -11 -43 -17 -47 -6 -4 -34 16 -63 45 l-51 52 26 22
c53 44 60 101 16 132 -31 22 -93 19 -117 -5z m102 -27 c25 -23 23 -46 -9 -77
-33 -33 -51 -30 -76 12 -18 30 -18 34 -3 57 19 29 60 33 88 8z m57 -274 c-24
-47 -114 -57 -154 -19 -36 34 -33 80 7 125 l31 36 63 -62 c52 -51 61 -66 53
-80z"/>
<path d="M2035 2473 c-162 -29 -337 -117 -443 -223 -41 -42 -50 -55 -41 -66
18 -22 35 -17 67 20 70 80 197 155 327 195 39 12 128 28 199 37 118 14 143 14
270 -1 151 -17 239 -34 354 -66 76 -21 92 -19 92 10 0 14 -23 24 -122 50 -68
17 -168 38 -223 46 -125 19 -373 18 -480 -2z"/>
<path d="M2695 2158 c-5 -14 -100 -424 -141 -608 -14 -63 -27 -123 -30 -132
-5 -16 4 -18 85 -18 l90 0 10 38 c5 20 12 52 16 70 l7 32 96 0 c128 0 160 15
184 86 22 67 108 447 108 479 0 14 -11 32 -26 44 -25 20 -40 21 -211 21 -138
0 -185 -3 -188 -12z m219 -156 c3 -5 -8 -64 -25 -133 -16 -68 -31 -134 -34
-147 -5 -20 -11 -23 -43 -20 -30 2 -37 7 -34 23 7 54 57 262 65 273 10 13 63
17 71 4z"/>
<path d="M3526 2162 c-5 -9 -56 -142 -56 -148 0 -2 56 -4 124 -4 l123 0 6 72
c3 39 4 75 1 80 -7 10 -191 11 -198 0z"/>
<path d="M3970 2128 c-5 -24 -14 -57 -19 -75 -5 -18 -6 -34 -3 -37 3 -3 52 -6
110 -6 l105 0 -7 53 c-3 28 -6 64 -6 80 l0 27 -85 0 -84 0 -11 -42z"/>
<path d="M4276 2161 c-6 -9 -36 -129 -36 -144 0 -4 39 -6 87 -5 l87 3 17 69
c10 39 16 74 13 78 -7 11 -161 10 -168 -1z"/>
<path d="M4707 2163 c-3 -5 -10 -35 -17 -68 -7 -33 -15 -65 -17 -72 -4 -10 42
-13 221 -13 l226 0 6 26 c4 15 3 43 -2 63 -15 61 -49 71 -246 71 -92 0 -169
-3 -171 -7z"/>
<path d="M5505 2116 c-13 -31 -27 -67 -31 -81 l-6 -25 120 0 c67 0 123 3 125
8 3 4 6 39 8 77 l4 70 -98 3 -98 3 -24 -55z"/>
<path d="M5850 2133 c-6 -21 -13 -57 -17 -80 l-6 -43 206 0 206 0 10 53 c6 28
12 63 13 77 l3 25 -202 3 -202 2 -11 -37z"/>
<path d="M710 2138 c-80 -41 -115 -140 -86 -241 35 -119 165 -170 274 -106 40
23 52 24 52 4 0 -8 5 -15 10 -15 6 0 10 37 10 90 l0 90 -66 0 c-57 0 -65 -2
-62 -17 2 -14 15 -19 51 -21 46 -3 47 -4 47 -37 0 -88 -164 -124 -245 -54 -82
72 -65 238 28 282 66 32 147 19 192 -29 14 -15 28 -24 32 -21 13 14 -22 57
-62 77 -55 27 -120 26 -175 -2z"/>
<path d="M1833 1968 c1 -121 6 -193 12 -193 6 0 11 43 13 102 3 96 4 103 29
123 29 23 95 27 111 7 6 -7 13 -62 14 -123 4 -145 22 -144 26 2 2 100 1 113
-18 137 -17 22 -30 27 -64 27 -23 0 -51 -7 -62 -15 -10 -8 -22 -15 -26 -15 -5
0 -8 32 -8 70 0 55 -3 70 -15 70 -12 0 -14 -29 -12 -192z"/>
<path d="M2140 2134 c0 -31 23 -28 28 4 2 15 -2 22 -12 22 -11 0 -16 -9 -16
-26z"/>
<path d="M1112 2034 c-18 -12 -27 -13 -35 -5 -24 24 -27 6 -25 -121 4 -159 22
-182 26 -33 3 109 12 129 64 143 15 4 29 12 31 17 4 17 -37 16 -61 -1z"/>
<path d="M1255 2025 c-14 -13 -25 -29 -25 -35 0 -17 25 -11 38 10 9 15 23 20
60 20 52 0 76 -13 86 -45 5 -19 0 -22 -59 -32 -100 -17 -146 -58 -131 -117 14
-58 63 -76 138 -51 36 11 54 13 56 6 2 -6 8 -9 13 -5 5 3 9 55 9 115 0 103 -1
111 -25 134 -20 21 -34 25 -80 25 -46 0 -60 -4 -80 -25z m163 -147 c7 -58 -91
-108 -143 -74 -33 22 -33 59 2 86 21 17 38 20 82 18 53 -3 56 -5 59 -30z"/>
<path d="M1596 2032 c-22 -13 -30 -14 -33 -4 -3 6 -9 12 -14 12 -5 0 -9 -78
-9 -181 0 -137 3 -180 12 -177 8 3 11 21 9 50 -1 25 2 49 7 52 5 3 24 -2 42
-10 92 -46 182 67 150 187 -22 82 -94 113 -164 71z m104 -22 c10 -5 23 -24 29
-41 33 -96 -16 -189 -93 -175 -57 11 -76 38 -76 107 0 54 3 64 29 90 31 30 75
38 111 19z"/>
<path d="M2297 2039 c-27 -16 -57 -84 -57 -131 0 -90 65 -156 140 -143 40 7
86 47 75 65 -5 8 -12 6 -26 -8 -41 -44 -120 -34 -146 18 -27 54 -8 158 32 174
35 13 92 6 110 -14 10 -11 22 -20 27 -20 15 0 8 21 -17 45 -19 20 -34 25 -72
25 -26 0 -56 -5 -66 -11z"/>
<path d="M2140 1911 c0 -120 11 -174 25 -119 11 44 1 241 -12 246 -10 3 -13
-27 -13 -127z"/>
<path d="M3573 1972 l-122 -3 -19 -52 c-11 -29 -37 -95 -57 -147 -75 -192
-194 -506 -202 -532 -5 -16 3 -18 80 -18 l85 0 25 68 25 67 46 5 c65 8 68 4
57 -66 -5 -32 -7 -62 -4 -66 2 -5 42 -8 87 -8 l83 0 11 113 c23 224 45 628 36
635 -5 4 -64 6 -131 4z m-38 -307 l-17 -135 -34 0 c-19 0 -34 1 -34 3 0 6 61
193 76 235 9 24 19 41 21 38 3 -3 -2 -66 -12 -141z"/>
<path d="M4230 1965 c-4 -5 -13 -37 -20 -70 -20 -103 -24 -105 -35 -15 l-10
85 -116 3 -115 3 -23 -98 c-131 -570 -141 -614 -141 -635 0 -17 8 -19 87 -16
l87 3 8 35 c4 19 23 105 42 190 23 106 35 147 39 130 3 -14 11 -100 18 -192
l12 -168 86 0 86 0 22 98 c12 53 50 220 84 369 35 150 61 275 58 277 -10 9
-161 11 -169 1z"/>
<path d="M4659 1955 c-4 -11 -22 -81 -38 -155 -40 -177 -117 -518 -126 -552
l-7 -28 174 0 c160 0 177 2 218 23 24 12 52 34 63 48 10 15 37 107 62 215 25
104 56 239 70 299 14 61 27 124 28 140 l2 30 -75 3 c-41 1 -81 -2 -88 -6 -12
-8 -32 -87 -111 -435 -16 -70 -34 -134 -41 -142 -14 -16 -65 -20 -74 -6 -5 8
32 181 89 416 13 55 26 116 27 135 l3 35 -84 0 c-75 1 -84 -1 -92 -20z"/>
<path d="M5571 1970 l-124 -5 -54 -140 c-29 -77 -69 -180 -88 -230 -19 -49
-57 -148 -85 -219 -27 -71 -50 -135 -50 -143 0 -10 21 -13 84 -13 l85 0 22 70
23 70 54 0 54 0 -7 -70 -7 -70 91 0 91 0 0 29 c0 16 11 183 25 371 14 189 22
346 18 349 -4 3 -64 4 -132 1z m-39 -305 l-17 -130 -32 -3 c-18 -2 -33 1 -33
5 0 13 60 202 78 248 23 57 24 29 4 -120z"/>
<path d="M5921 1928 c-11 -44 -161 -697 -161 -704 0 -2 40 -4 90 -4 85 0 90 1
95 23 3 12 14 60 24 107 61 273 114 502 126 549 8 30 12 58 9 63 -3 4 -43 8
-88 8 l-83 0 -12 -42z"/>
<path d="M634 1607 c-2 -7 -3 -94 -2 -192 l3 -180 95 0 c105 0 144 15 183 68
23 30 34 129 23 192 -10 52 -57 100 -110 114 -63 16 -185 15 -192 -2z m210
-37 c52 -26 70 -62 70 -137 1 -76 -15 -116 -57 -147 -22 -16 -43 -20 -110 -21
l-82 0 -3 164 -3 163 78 -4 c43 -2 91 -10 107 -18z"/>
<path d="M1600 1595 c0 -25 14 -34 24 -16 8 12 -3 41 -15 41 -5 0 -9 -11 -9
-25z"/>
<path d="M1071 1497 c-60 -31 -88 -127 -58 -200 19 -44 69 -77 116 -77 38 0
101 35 101 56 0 18 -14 18 -29 0 -34 -40 -123 -30 -152 17 -37 62 -32 67 86
67 l105 0 0 30 c0 88 -92 147 -169 107z m100 -27 c10 -6 26 -24 34 -40 20 -39
13 -42 -90 -38 -91 3 -101 14 -57 58 32 32 76 39 113 20z"/>
<path d="M1336 1489 c-34 -27 -35 -70 -2 -96 13 -11 51 -27 85 -38 64 -19 80
-39 62 -74 -19 -35 -113 -39 -142 -5 -15 18 -29 18 -29 1 0 -45 102 -72 158
-43 34 17 46 45 40 92 -3 32 -36 53 -118 76 -47 14 -62 37 -40 63 17 20 90 19
118 -1 26 -18 38 -13 28 11 -14 38 -118 47 -160 14z"/>
<path d="M1752 1495 c-34 -25 -52 -69 -52 -130 0 -90 40 -145 106 -145 17 0
43 9 58 21 l26 20 0 -29 c0 -42 -32 -67 -87 -67 -36 0 -49 5 -60 23 -19 27
-33 28 -33 3 0 -42 83 -71 145 -51 56 19 65 47 65 213 l0 144 -27 1 c-16 0
-48 3 -73 7 -34 5 -51 2 -68 -10z m113 -27 c24 -11 25 -15 25 -95 0 -83 0 -83
-32 -103 -42 -25 -69 -25 -101 0 -45 35 -48 131 -6 185 23 28 69 34 114 13z"/>
<path d="M2076 1494 c-23 -13 -30 -14 -37 -3 -4 7 -11 10 -15 7 -11 -12 -6
-262 6 -266 6 -2 10 29 10 91 0 53 3 103 6 112 9 22 56 45 93 45 49 0 61 -28
61 -148 0 -76 3 -103 12 -100 8 3 11 37 9 119 -2 100 -5 117 -23 137 -26 26
-79 29 -122 6z"/>
<path d="M1600 1365 c0 -95 3 -136 11 -133 7 2 11 48 11 133 0 85 -4 131 -11
133 -8 3 -11 -38 -11 -133z"/>
<path d="M6894 1396 c-698 -351 -1678 -501 -3051 -466 -241 6 -517 15 -613 20
-673 37 -872 44 -1275 44 -521 1 -616 -7 -847 -76 -75 -22 -166 -73 -216 -121
-45 -43 -90 -140 -98 -208 -9 -75 16 -194 64 -306 39 -92 113 -233 123 -233 3
0 13 6 23 13 18 13 17 15 -7 53 -98 157 -166 361 -154 466 7 57 39 133 70 167
73 80 253 148 467 177 182 25 845 26 1345 1 193 -10 481 -24 640 -32 679 -33
1252 -29 1765 15 645 54 1171 172 1614 362 204 87 258 116 254 136 -5 28 -31
25 -104 -12z"/>
<path d="M2506 1343 c-2 -10 -7 -34 -11 -53 -4 -19 -9 -43 -11 -52 -5 -16 4
-18 84 -18 l89 0 16 60 c10 33 17 64 17 70 0 6 -36 10 -89 10 -77 0 -90 -3
-95 -17z"/>
</g>
</svg>
